<?xml version="1.0" encoding="UTF-8" standalone="no"?>
<!-- Created with Inkscape (http://www.inkscape.org/) -->

<svg
   width="155.12807mm"
   height="192.70943mm"
   viewBox="0 0 155.12807 192.70943"
   version="1.1"
   id="svg1"
   xml:space="preserve"
   xmlns:inkscape="http://www.inkscape.org/namespaces/inkscape"
   xmlns:sodipodi="http://sodipodi.sourceforge.net/DTD/sodipodi-0.dtd"
   xmlns="http://www.w3.org/2000/svg"
   xmlns:svg="http://www.w3.org/2000/svg"><sodipodi:namedview
     id="namedview1"
     pagecolor="#505050"
     bordercolor="#ffffff"
     borderopacity="1"
     inkscape:showpageshadow="0"
     inkscape:pageopacity="0"
     inkscape:pagecheckerboard="1"
     inkscape:deskcolor="#505050"
     inkscape:document-units="mm"><inkscape:page
       x="0"
       y="0"
       width="155.12807"
       height="192.70943"
       id="page2"
       margin="0"
       bleed="0" /></sodipodi:namedview><defs
     id="defs1" /><g
     inkscape:label="Layer 1"
     inkscape:groupmode="layer"
     id="layer1"
     transform="translate(-27.167395,-37.268412)"><path
       style="fill:#000000;stroke:#000000;stroke-width:0.5;stroke-linecap:butt;stroke-linejoin:bevel;stroke-dasharray:none;stroke-opacity:1"
       d="m 103.37351,229.37904 -0.66111,-0.3474 -1.11863,-0.70875 -1.11864,-0.70874 h -0.13381 -0.13381 l -2.31755,-1.36068 -2.31755,-1.36069 -3.73985,-2.2182 -3.739856,-2.2182 -5.647905,-3.76488 -5.647905,-3.76488 -3.930573,-3.13568 -3.930573,-3.13569 -3.870522,-3.62876 -3.870522,-3.62876 -2.004809,-2.2212 -2.00481,-2.22121 -2.100138,-2.51221 -2.100139,-2.51222 -0.905227,-1.1613 -0.905228,-1.1613 -0.754792,-1.08647 -0.754793,-1.08648 -1.74481,-2.64443 -1.744809,-2.64444 -1.587146,-2.64444 -1.587147,-2.64444 -2.146753,-4.36333 -2.146754,-4.36332 -1.029851,-2.64444 -1.02985,-2.64444 -0.19289,-0.26444 -0.19289,-0.26445 -1.111041,-3.43777 -1.111041,-3.43777 -0.47693,-1.45444 -0.476931,-1.45444 -0.450835,-1.85111 -0.450836,-1.8511 -0.231639,-0.52889 -0.23164,-0.52889 -0.09745,-0.66111 -0.09745,-0.66111 -0.153754,-0.39667 -0.153754,-0.39666 -0.529512,-2.64444 -0.529512,-2.64444 -0.39796,-2.64444 -0.397961,-2.64444 -0.280832,-1.98333 -0.280833,-1.98333 -0.259779,-2.37999 -0.259779,-2.38 -0.131351,-1.58666 -0.131351,-1.58666 -0.30115,-3.83444 -0.30115,-3.83444 0.0064,-13.35441 0.0064,-13.354416 0.181596,-6.6111 0.181595,-6.61109 0.191272,-2.95653 0.191273,-2.95654 0.354915,-0.42764 0.354915,-0.42765 0.201521,0.32607 0.201521,0.32607 0.350709,-0.28365 0.35071,-0.28365 1.106919,-0.1825 1.10692,-0.1825 0.586317,-0.50851 0.586317,-0.50851 h 0.107367 0.107366 l -0.163436,0.26444 -0.163435,0.26445 0.742828,-0.0307 0.742827,-0.0307 -0.462777,-0.12094 -0.462777,-0.12094 v -0.28912 -0.28913 l 0.174002,0.174 0.174002,0.174 0.354886,-0.29453 0.354886,-0.29453 v 0.42905 0.42904 h 0.28005 0.280051 l -0.147515,-0.23868 -0.147515,-0.23868 0.859129,-0.32168 0.859129,-0.32168 0.925554,-0.10971 0.925553,-0.10971 3.445026,-0.90076 3.445026,-0.90076 0.738318,-0.28071 0.738317,-0.28071 0.708869,0.15405 0.708869,0.15404 -0.396666,-0.30719 -0.396666,-0.3072 1.057776,0.1452 1.057775,0.1452 0.396666,-0.26409 0.396666,-0.26409 -0.793332,0.14575 -0.793331,0.14575 0.661109,-0.29668 0.66111,-0.29668 0.850961,-0.361605 0.85096,-0.361604 0.292893,0.454454 0.292893,0.454453 -0.13065,-0.428274 -0.130649,-0.428275 2.027901,-0.577977 2.027901,-0.577976 0.528888,-0.115013 0.528887,-0.115013 -0.793331,0.382116 -0.793332,0.382116 0.206675,0.01193 0.206675,0.01193 1.644432,-0.545603 1.644433,-0.545602 0.330555,-0.430494 0.330554,-0.430494 0.0041,0.381098 0.004,0.381098 0.228504,-0.360672 0.228503,-0.360672 2.213553,-0.731028 2.213554,-0.731029 1.683768,-0.709695 1.683768,-0.709695 0.379407,0.145592 0.379406,0.145592 -0.145642,-0.235655 -0.145643,-0.235655 0.726907,-0.263156 0.726907,-0.263156 0.506157,-0.204209 0.506158,-0.204209 -0.195213,0.375494 -0.195214,0.375494 0.350166,-0.416133 0.350165,-0.416132 3.173327,-1.401892 3.173327,-1.401891 0.569746,-0.03308 0.569747,-0.03308 -0.09627,-0.155765 -0.09627,-0.155764 2.152208,-1.034233 2.152208,-1.034234 0.283196,-0.08906 0.283196,-0.08906 -0.793332,0.550098 -0.793332,0.550099 0.314948,0.0017 0.314949,0.0017 0.150861,-0.244098 0.150861,-0.244099 0.85641,-0.189995 0.85641,-0.189996 -0.478601,-0.169916 -0.478601,-0.169916 1.49391,-0.699048 1.493911,-0.699048 -0.486422,0.550663 -0.486421,0.550662 0.735473,-0.473423 0.735474,-0.473423 -0.133949,-0.133949 -0.133948,-0.133948 1.191432,-0.634249 1.191433,-0.634248 0.297341,0.183767 0.297343,0.183767 -0.184398,-0.29836 -0.184397,-0.298361 2.192975,-1.081008 2.19298,-1.081009 0.25122,-0.248153 0.25123,-0.248153 h 0.22716 0.22716 l -0.17078,0.330555 -0.17077,0.330555 0.48572,-0.558482 0.48573,-0.558481 1.71888,-0.912923 1.71889,-0.912924 1.586664,-0.880066 1.58666,-0.880066 1.15399,-0.618585 1.15398,-0.618584 1.88712,1.016089 1.88712,1.016089 1.45444,0.864705 1.45445,0.864705 2.37999,1.325641 2.38,1.325641 4.93034,2.47417 4.93034,2.47417 h 0.13361 0.13362 l 3.33713,1.586664 3.33713,1.586663 h 0.33878 0.33879 l 0.25122,0.216922 0.25122,0.216923 1.71889,0.700354 1.71888,0.700354 2.90888,1.099299 2.90889,1.099299 4.36332,1.43667 4.36333,1.43667 0.45438,0.245968 0.45438,0.245968 1.16364,0.260776 1.16363,0.260776 0.76198,0.311747 0.76198,0.311746 0.26444,0.06035 0.26444,0.06035 2.51222,0.584446 2.51222,0.584448 2.64444,0.88443 2.64444,0.88443 1.55289,0.43025 1.55288,0.43025 4.61118,1.17234 4.61117,1.17233 0.49524,0.26504 0.49523,0.26504 0.13267,0.46306 0.13266,0.46306 0.1365,1.18999 0.1365,1.19 0.21152,5.68554 0.21153,5.68555 v 14.80886 14.808846 l -0.18779,3.57 -0.18779,3.56999 -0.12497,1.58667 -0.12496,1.58666 -0.28341,2.90888 -0.2834,2.90889 -0.13647,1.05777 -0.13646,1.05778 -0.66057,4.09888 -0.66057,4.09888 -0.39499,1.98333 -0.39499,1.98333 -0.12574,0.66111 -0.12573,0.66111 -0.81706,3.17332 -0.81706,3.17333 -0.79887,2.5958 -0.79886,2.5958 -0.0663,0.31308 -0.0663,0.31308 -0.14811,0.39667 -0.14811,0.39667 -1.1875,3.17332 -1.18749,3.17333 -0.8807,2.11555 -0.88069,2.11555 -2.57275,5.0975 -2.57275,5.09751 -3.34767,5.06206 -3.34766,5.06206 -0.52374,0.55042 -0.52373,0.55041 -1.21572,1.58666 -1.21573,1.58666 -1.20423,1.45445 -1.20424,1.45444 -2.35716,2.64444 -2.35715,2.64443 -2.00623,1.99379 -2.00623,1.99379 -2.00513,1.70843 -2.00513,1.70842 -0.69916,0.58781 -0.69917,0.58781 -1.92347,1.54585 -1.92348,1.54584 -3.33798,2.3619 -3.33797,2.36189 -1.9509,1.23308 -1.95091,1.23308 -3.17332,2.04597 -3.17333,2.04596 -3.17333,1.83932 -3.17332,1.83932 -3.30555,1.69019 -3.30555,1.6902 -0.39667,-7.6e-4 -0.39666,-7.6e-4 z m 2.43211,-7.13634 1.13788,-0.61146 2.11555,-1.14965 2.11555,-1.14965 2.975,-1.8268 2.97499,-1.8268 0.007,-0.84153 0.007,-0.84152 0.10404,-9.12332 0.10405,-9.12331 0.29148,-1.27885 0.29149,-1.27884 0.67713,-1.6088 0.67714,-1.60879 1.93352,-3.10951 1.93353,-3.10951 0.94097,-1.95636 0.94097,-1.95636 0.65242,-2.25138 0.65243,-2.25138 0.14697,-1.69509 0.14697,-1.69508 0.0722,-18.46679 0.0722,-18.46679 -0.74197,-0.63928 -0.74196,-0.63929 h -0.5017 -0.5017 l -0.69338,0.31593 -0.69339,0.31593 -0.38547,0.74541 -0.38546,0.74541 -0.13881,9.84697 -0.13882,9.84697 -0.25322,1.85111 -0.25322,1.85111 -0.67186,0.595 -0.67185,0.595 h -0.56079 -0.56148 l -0.8121,-0.26002 -0.81211,-0.26001 -2.37999,-0.55862 -2.38,-0.55863 -1.45444,-0.22294 -1.45444,-0.22295 -2.6584,-0.41076 -2.6584,-0.41076 -3.39115,-0.13939 -3.39115,-0.13938 -0.24731,-0.15285 -0.2473,-0.15284 -0.28029,-0.70153 -0.2803,-0.70154 -0.0931,-13.35441 -0.0931,-13.35442 -0.15425,-1.11658 -0.15425,-1.11657 -0.68166,-0.5362 -0.68167,-0.5362 h -0.96327 -0.96327 l -0.61567,0.43123 -0.61566,0.43123 -0.34082,0.82488 -0.34082,0.82488 -0.0583,6.74332 -0.0583,6.74332 0.0169,10.57775 0.0169,10.57776 0.0135,0.30189 0.0135,0.30188 0.72722,0.17157 0.72722,0.17157 2.7168,1.3373 2.7168,1.33729 1.81154,1.75924 1.81153,1.75924 0.66849,0.92556 0.66849,0.92555 0.65484,1.19 0.65483,1.19 0.56111,1.05386 0.5611,1.05386 v 0.71553 0.71553 l -0.28247,0.17457 -0.28247,0.17458 0.14073,0.36675 0.14073,0.36674 -0.18881,-0.051 -0.18882,-0.051 -1.00172,0.34248 -1.00172,0.34248 -0.59089,-0.38717 -0.59089,-0.38717 -0.75802,-1.42165 -0.75802,-1.42166 -1.39354,-1.87677 -1.39355,-1.87678 -1.67693,-1.19436 -1.67692,-1.19437 -1.32222,-0.66415 -1.32222,-0.66415 -1.983328,-0.59872 -1.983329,-0.59871 -1.449186,-0.44627 -1.449185,-0.44627 -0.591211,-1.16971 -0.591212,-1.16971 -0.816187,-3.17333 -0.816188,-3.17333 -0.644712,-2.05491 -0.644712,-2.0549 -0.528676,-1.03629 -0.528676,-1.03629 -0.852587,-0.79682 -0.852586,-0.79681 -1.067429,-0.51906 -1.067429,-0.51906 -0.908861,-0.29028 -0.90886,-0.29028 -0.210633,0.21063 -0.210632,0.21064 0.669495,2.23894 0.669495,2.23895 0.236657,0.92555 0.236656,0.92555 0.536741,2.27579 0.536741,2.27578 0.657563,3.14532 0.657563,3.14531 0.120442,0.66111 0.120443,0.66111 0.538997,2.38 0.538997,2.37999 0.68388,2.35376 0.68388,2.35376 0.748585,1.92785 0.748585,1.92785 1.198879,1.66838 1.198879,1.66838 0.570119,0.60086 0.57012,0.60086 0.289539,-0.17894 0.289538,-0.17895 -0.161614,0.2615 -0.161614,0.2615 1.203353,1.16769 1.203353,1.16769 1.127702,1.45444 1.127703,1.45444 0.546099,1.07364 0.546103,1.07364 0.44604,1.70302 0.44604,1.70303 -0.0326,9.78442 -0.0326,9.78442 2.7745,1.58667 2.77451,1.58666 3.6417,2.15661 3.6417,2.15661 0.18434,0.025 0.18434,0.0251 z m 18.06229,-10.7867 1.58666,-1.08359 -0.0727,-0.25766 -0.0727,-0.25766 0.23949,0.14802 0.23949,0.14801 0.99342,-0.78947 0.99342,-0.78946 h 0.18032 0.18032 l 1.43609,-1.04986 1.43609,-1.04986 0.26445,-0.20717 0.26444,-0.20717 3.29355,-2.64352 3.29355,-2.64352 4.069,-3.96666 4.069,-3.96666 2.68632,-3.27498 2.68632,-3.27499 0.94921,-1.22056 0.94921,-1.22056 1.76637,-2.57465 1.76638,-2.57465 1.83899,-3.02669 1.839,-3.02668 1.9751,-3.91865 1.97511,-3.91864 1.2053,-2.71221 1.2053,-2.71221 v -0.20759 -0.20759 l 1.33932,-3.6913 1.33933,-3.69129 0.35574,-1.32222 0.35574,-1.32222 0.98087,-3.57 0.98087,-3.56999 0.37626,-1.71888 0.37626,-1.71889 0.66268,-3.70221 0.66269,-3.70222 0.39287,-3.70221 0.39287,-3.70222 0.24135,-2.51221 0.24136,-2.51222 0.18249,-3.70222 0.18249,-3.70221 -0.0373,-14.373406 -0.0373,-14.37341 -0.12096,-0.19572 -0.12096,-0.19573 -0.0317,-4.787 -0.0317,-4.787 -0.30887,-0.24436 -0.30886,-0.24436 -0.92556,-0.28461 -0.92555,-0.28461 -0.79333,-0.12265 -0.79334,-0.12264 -1.57611,-0.42054 -1.57611,-0.42054 h -0.58994 -0.58995 l -0.14392,-0.23287 -0.14392,-0.23287 -0.5989,-0.13709 -0.59891,-0.13709 -3.30555,-0.95012 -3.30555,-0.95012 -3.0411,-0.96797 -3.04111,-0.96796 -5.47099,-1.80942 -5.471,-1.80942 -4.84231,-1.96904 -4.84232,-1.969038 -2.77666,-1.172561 -2.77666,-1.172562 -5.94999,-2.913198 -5.94999,-2.913197 -4.09067,-2.288017 -4.09067,-2.288017 -0.40536,-0.366844 -0.40536,-0.366845 -0.75399,-0.286665 -0.75399,-0.286666 -1.36108,0.765155 -1.36108,0.765156 -1.32221,0.727469 -1.32222,0.72747 -2.34181,1.303004 -2.3418,1.303003 -6.10305,3.05485 -6.103053,3.054851 -2.00068,0.919422 -2.000679,0.919422 -4.892212,1.931817 -4.892213,1.931821 -2.379995,0.91977 -2.379995,0.91976 -5.024434,1.59942 -5.024434,1.59942 -2.379995,0.71317 -2.379995,0.71317 -1.586664,0.47156 -1.586663,0.47156 -1.32222,0.32299 -1.322219,0.32299 -1.689189,0.50003 -1.689189,0.50003 -0.753256,0.1327 -0.753256,0.13271 -2.108678,0.50364 -2.108678,0.50365 -0.251076,0.15517 -0.251077,0.15517 -0.05326,6.94082 -0.05326,6.94082 -0.03676,13.48664 -0.03676,13.486636 0.213023,4.36332 0.213023,4.36333 0.120925,1.05777 0.120924,1.05778 0.664749,5.02443 0.664749,5.02443 0.421482,1.98333 0.421483,1.98333 0.203565,0.92556 0.203565,0.92555 0.426809,1.9398 0.426809,1.93979 0.651076,2.55575 0.651077,2.55575 1.172159,3.57 1.17216,3.56999 1.483613,3.83443 1.483612,3.83444 2.029701,4.09888 2.0297,4.09888 1.642569,2.77666 1.642568,2.77666 2.046279,3.04111 2.046278,3.0411 1.617359,2.08461 1.617358,2.08461 1.978992,2.39334 1.978991,2.39335 3.045443,3.06977 3.045442,3.06977 1.828045,1.57559 1.828045,1.57559 0.419728,0.4073 0.419729,0.4073 1.586663,1.33233 1.586663,1.33233 2.644439,1.98751 2.644439,1.98751 2.150247,1.49563 2.150247,1.49563 h 0.295859 0.29586 v -2.71778 -2.71777 l -0.819723,-0.71929 -0.819722,-0.7193 -0.278912,0.17238 -0.278912,0.17238 0.181507,-0.29369 0.181508,-0.29368 -0.735648,-0.46272 -0.735647,-0.46272 -3.305549,-2.49982 -3.305549,-2.49982 -2.514452,-2.40407 -2.514452,-2.40407 -1.71665,-1.59977 -1.716651,-1.59978 -1.718885,-1.85157 -1.718885,-1.85158 -1.447518,-1.7053 -1.447517,-1.70531 -0.139814,-0.13222 -0.139814,-0.13222 -1.078611,-1.45444 -1.07861,-1.45445 -1.320454,-1.8511 -1.320453,-1.85111 -2.323588,-3.81999 -2.323588,-3.81999 -1.714317,-3.42308 -1.714316,-3.42308 -1.317623,-3.20246 -1.317623,-3.20247 -1.043334,-3.0411 -1.043334,-3.04111 -0.762778,-2.64444 -0.762777,-2.64444 -0.836736,-3.56999 -0.836736,-3.56999 -0.49932,-2.42232 -0.499319,-2.42231 -0.388147,-3.26323 -0.388147,-3.26323 -0.160285,-1.85111 -0.160284,-1.8511 -0.110401,-0.66111 -0.110401,-0.66111 -0.202304,-4.09888 -0.202305,-4.09888 0.013,-9.65221 0.013,-9.652196 0.18964,-8.8516 0.189639,-8.85161 0.289589,-0.17898 0.289589,-0.17897 3.994127,-0.96542 3.994126,-0.96543 2.379995,-0.67697 2.379996,-0.67697 3.041104,-0.92413 3.041105,-0.92413 3.392855,-1.03613 3.392855,-1.03614 4.011575,-1.47121 4.011574,-1.47121 1.395559,-0.6383 1.395559,-0.63829 h 0.151941 0.151941 l 3.741378,-1.61987 3.741378,-1.619864 1.718885,-0.791184 1.718886,-0.791184 5.156657,-2.573274 5.15665,-2.573274 2.23087,-1.239521 2.230856,-1.239521 0.3612,0.138606 0.3612,0.138606 -0.12213,-0.197604 -0.12212,-0.197605 1.27111,-0.841123 1.27111,-0.841123 1.94449,1.169571 1.9445,1.16957 0.17293,0.0044 0.17293,0.0044 1.67818,0.952389 1.67818,0.95239 4.89221,2.46212 4.89221,2.462121 3.43777,1.514385 3.43777,1.514389 5.4211,2.17487 5.4211,2.17488 5.68555,1.86884 5.68554,1.86884 2.64444,0.79316 2.64444,0.79315 4.89221,1.37314 4.89221,1.37314 2.24778,0.57868 2.24777,0.57868 0.16826,3.15738 0.16826,3.15738 0.18149,5.68555 0.18149,5.68554 0.0777,8.594426 0.0777,8.59443 -0.23289,3.70221 -0.23289,3.70221 -0.40373,4.09888 -0.40373,4.09888 -0.2799,2.11555 -0.2799,2.11555 -0.39558,2.24778 -0.39558,2.24777 -0.1192,0.66111 -0.11921,0.66111 -1.05377,4.75999 -1.05378,4.75999 -0.41839,1.28219 -0.41839,1.2822 -0.32413,1.36224 -0.32413,1.36225 -1.78405,4.75999 -1.78406,4.75999 -2.3607,4.75999 -2.3607,4.75999 -0.5526,0.92555 -0.55259,0.92556 -1.33704,2.24777 -1.33704,2.24777 -0.84101,1.05778 -0.84102,1.05777 -1.00949,1.45444 -1.0095,1.45445 -2.53714,3.1493 -2.53714,3.1493 -0.56983,0.685 -0.56983,0.68501 0.12671,0.20501 0.12671,0.20502 -0.23686,-0.0727 -0.23686,-0.0727 -2.49335,2.48667 -2.49334,2.48667 -3.43778,2.9534 -3.43777,2.9534 -2.54866,1.96436 -2.54866,1.96436 -2.01977,1.45444 -2.01978,1.45444 0.0729,2.70978 0.0729,2.70977 0.13222,1.5e-4 0.13223,1.4e-4 z m 0.92555,-12.6483 0.92556,-0.66284 1.95806,-1.59477 1.95806,-1.59477 2.93415,-2.56172 2.93415,-2.56173 2.9606,-3.25604 2.9606,-3.25604 0.68934,-0.79333 0.68934,-0.79333 2.57196,-3.56999 2.57197,-3.57 0.61011,-0.99331 0.61011,-0.99331 0.28272,0.17473 0.28272,0.17473 -0.15539,-0.25142 -0.15538,-0.25141 0.73531,-1.31 0.73531,-1.31 1.2464,-2.24777 1.24639,-2.24777 0.24436,-0.39667 0.24435,-0.39666 1.41669,-2.77666 1.41668,-2.77667 1.07655,-2.90888 1.07655,-2.90888 0.7904,-2.24777 0.79039,-2.24778 0.53439,-1.71888 0.53439,-1.71889 0.6529,-2.77666 0.6529,-2.77666 0.28294,-1.32222 0.28293,-1.32222 0.65034,-3.56999 0.65033,-3.56999 0.15681,-0.94731 0.15681,-0.94731 0.39434,-4.07712 0.39434,-4.07713 0.197,-2.90888 0.19699,-2.90889 -0.007,-13.48664 -0.007,-13.486636 -0.21865,-3.39059 -0.21864,-3.3906 -0.30284,-0.0783 -0.30283,-0.0783 -2.38,-0.58551 -2.37999,-0.5855 -0.26445,-0.0506 -0.26444,-0.0506 -0.79333,-0.30308 -0.79333,-0.30308 -3.57,-1.09601 -3.56999,-1.09602 -3.43777,-1.15086 -3.43777,-1.15086 -2.11555,-0.78088 -2.11555,-0.78088 -2.51222,-0.93524 -2.51222,-0.93525 -1.05777,-0.4468 -1.05778,-0.44681 -0.79333,-0.35962 -0.79333,-0.35962 -3.04111,-1.23424 -3.0411,-1.23424 -3.10722,-1.5563 -3.10721,-1.55631 -0.004,0.20037 -0.004,0.20037 -0.19429,-0.26444 -0.19428,-0.26445 -2.51222,-1.24126 -2.51221,-1.241257 -3.17333,-1.567988 -3.17333,-1.567988 -1.22867,-0.701906 -1.22866,-0.701905 -0.94429,0.557145 -0.94429,0.557145 -0.27315,-0.168814 -0.27315,-0.168814 v 0.239649 0.239649 l -1.65277,0.884847 -1.65278,0.884847 -1.85111,1.004812 -1.8511,1.004812 -3.30555,1.614396 -3.30555,1.6144 -2.512217,1.13555 -2.512217,1.13555 -1.586664,0.70955 -1.586663,0.70955 -1.32222,0.60451 -1.322219,0.6045 -2.247773,0.85796 -2.247773,0.85796 -0.793332,0.34645 -0.793332,0.34645 -3.858388,1.36175 -3.858388,1.36174 -0.372714,0.0693 -0.372715,0.0693 -3.827049,1.23567 -3.82705,1.23567 h -0.417275 -0.417275 l -0.251222,0.24686 -0.251221,0.24687 -4.231103,1.09828 -4.231102,1.09827 -1.057776,0.32878 -1.057775,0.32877 -0.158052,1.30108 -0.158051,1.30108 -0.01734,16.39552 -0.01734,16.395516 0.353749,4.89221 0.353749,4.89221 0.432522,2.90888 0.432523,2.90889 0.509131,3.0411 0.509131,3.04111 0.637469,2.92437 0.63747,2.92437 0.974008,3.29006 0.974009,3.29006 1.465808,3.96666 1.465808,3.96666 1.052898,2.47631 1.052897,2.47631 2.049847,3.77039 2.049847,3.77038 1.029942,1.63573 1.029943,1.63572 1.428602,2.16645 1.428602,2.16644 1.3914,1.85111 1.3914,1.85111 2.118411,2.51221 2.118411,2.51222 1.997836,2.08344 1.997836,2.08343 -0.167677,0.27131 -0.167677,0.27131 0.293395,-0.18133 0.293396,-0.18133 1.53246,1.38298 1.532459,1.38299 0.368283,0.36298 0.368282,0.36299 1.747269,1.39326 1.747268,1.39326 2.113726,1.49679 2.113725,1.49678 h 0.360673 0.360674 l -0.143084,-0.37287 -0.143083,-0.37287 -0.05146,-2.20546 -0.05146,-2.20546 -0.193952,-0.26444 -0.193952,-0.26444 -0.166376,-0.69795 -0.166377,-0.69795 -1.17724,-1.56607 -1.177241,-1.56608 -1.164988,-1.17375 -1.164988,-1.17374 -1.711535,-2.11556 -1.711535,-2.11555 -0.971042,-1.74083 -0.971041,-1.74083 -0.668289,-1.82916 -0.668288,-1.82916 -0.534208,-2.11555 -0.534207,-2.11555 -0.910248,-4.36333 -0.910248,-4.36332 -0.434385,-1.98333 -0.434385,-1.98333 -1.685912,-6.84414 -1.685911,-6.84414 v -0.85846 -0.85847 l 0.385082,-0.31959 0.385082,-0.31959 0.316886,0.19585 0.316887,0.19584 -0.175388,-0.28378 -0.175389,-0.28378 0.799395,-0.17558 0.799395,-0.17558 1.913463,-0.008 1.913462,-0.008 1.189998,0.3215 1.189998,0.3215 1.673073,0.75826 1.673073,0.75827 1.500254,1.53506 1.500253,1.53506 0.833087,1.57953 0.833088,1.57954 0.724319,2.05666 0.724319,2.05666 0.121801,-0.1218 0.1218,-0.1218 0.105884,-12.64484 0.105884,-12.64484 0.123746,-2.0481 0.123747,-2.0481 0.686041,-1.45017 0.68604,-1.45017 0.966996,-0.79708 0.966995,-0.79708 1.129127,-0.53075 1.12912,-0.53075 h 1.04344 1.04345 l 0.61221,0.22573 0.61221,0.22572 0.70257,0.16979 0.70256,0.16979 0.17886,-1.30045 0.17886,-1.30045 0.75308,-1.59238 0.75307,-1.59239 1.08094,-0.78302 1.080928,-0.78303 1.35434,-0.3249 1.35433,-0.3249 1.85654,0.15565 1.85653,0.15564 1.20455,0.74472 1.20455,0.74472 0.84868,1.11269 0.84868,1.11269 0.3331,1.52608 0.3331,1.52608 -0.0488,0.19833 -0.0488,0.19834 h 0.0986 0.0986 l 1.26874,-0.56123 1.26875,-0.56123 1.42502,0.14708 1.42502,0.14707 1.32292,0.84892 1.32292,0.84891 0.76126,1.33292 0.76126,1.33291 0.30945,1.83467 0.30946,1.83467 -0.14495,0.8932 -0.14494,0.8932 h 0.24782 0.24781 v -0.21132 -0.21132 l 0.87822,-0.31757 0.87822,-0.31757 h 0.93065 0.93065 l 1.5821,0.79059 1.5821,0.79058 0.81108,1.12941 0.81108,1.12941 0.4233,1.42538 0.42329,1.42539 7e-5,19.19846 8e-5,19.19847 -0.25366,1.58666 -0.25365,1.58666 -0.1544,0.92556 -0.1544,0.92555 -0.40761,1.45444 -0.40762,1.45444 -0.89464,1.941 -0.89465,1.941 -1.86153,3.25447 -1.86154,3.25446 -0.82084,1.81033 -0.82084,1.81034 -0.16662,1.98529 -0.16661,1.9853 0.0838,0.58951 0.0838,0.58952 0.70955,-0.44747 0.70955,-0.44746 z M 99.67129,97.375534 v -11.23887 h -6.47887 -6.478879 v -4.75999 -4.75999 h 6.478879 6.47887 v -6.6111 -6.61109 h 4.89221 4.89222 v 6.61109 6.6111 h 6.47887 6.47888 v 4.75999 4.75999 h -6.47888 -6.47887 v 11.23887 11.238856 h -4.89222 -4.89221 z m 17.44414,43.618536 -0.0151,-14.16244 -0.2627,-0.69098 -0.26271,-0.69097 -0.45238,-0.34369 -0.45238,-0.3437 -0.79333,-0.007 -0.79334,-0.007 -0.85234,0.51969 -0.85235,0.5197 -0.13947,0.6032 -0.13946,0.6032 -0.066,13.54759 -0.066,13.54758 2.11555,0.51382 2.11556,0.51383 0.46575,0.0202 0.46575,0.0202 z m -10.29541,-4.64602 -0.0131,-16.75924 -0.48595,-0.66111 -0.48595,-0.66111 -0.99397,-0.25172 -0.99397,-0.25173 -0.96402,0.51654 -0.96402,0.51653 -0.27362,0.84617 -0.27363,0.84616 0.009,16.2101 0.009,16.21011 2.11555,0.0712 2.11555,0.0712 0.52889,0.0716 0.52889,0.0715 0.077,-0.0435 0.077,-0.0435 z"
       id="path1" /><path
       style="fill:#32d0c7;stroke:#000000;stroke-width:7.50236;stroke-dasharray:none;stroke-opacity:1;paint-order:markers stroke fill"
       d="m 462.3156,792.31127 0.0375,-9.38926 19.14208,-14.26671 c 24.00412,-17.89042 57.74001,-49.04979 69.3272,-64.03248 23.02182,-29.76811 28.07092,-36.81151 36.23593,-50.54853 34.31252,-57.72828 52.97447,-121.95623 60.30044,-207.53335 2.26992,-26.51575 1.27459,-147.72309 -1.29234,-157.37341 -0.84412,-3.17342 -5.88903,-5.24113 -26.02672,-10.66737 C 549.09263,259.383 493.03298,238.08962 432.7863,207.3749 l -38.3439,-19.54834 -4.93319,3.61757 c -9.42119,6.90865 -85.74119,43.45136 -113.12594,54.16572 -27.30275,10.68227 -86.69112,29.31157 -115.07773,36.09826 l -14.75356,3.52729 -1.26185,11.80285 c -2.7061,25.31169 -1.76772,143.77824 1.38274,174.56578 8.33517,81.45446 35.3533,154.51361 79.03527,213.71758 14.88059,20.16827 52.75016,58.65675 73.29725,74.49517 9.19638,7.08891 17.82721,14.25024 19.17962,15.91411 1.35241,1.66388 2.45893,2.30503 2.45893,1.4248 0,-0.88022 1.32782,-0.49842 2.95071,0.84847 1.89013,1.56865 2.95071,5.92247 2.95071,12.11292 0,11.70018 0.66525,11.92306 -27.0746,-9.0706 C 203.53451,708.44146 149.0941,611.18374 131.65497,481.24377 128.37872,456.83222 127.86415,440.77972 127.86415,362.9866 v -90.01149 l 22.13033,-5.46343 c 78.31362,-19.3337 154.96761,-49.55936 229.66368,-90.55937 l 16.7207,-9.17784 17.69031,10.26695 c 39.31691,22.81838 94.77187,47.7648 140.66451,63.27794 30.00287,10.1419 76.27895,24.07949 93.6322,28.20046 l 13.96302,3.31588 1.28232,29.62652 c 3.47657,80.32104 0.41275,163.40325 -7.67082,208.0108 -17.02195,93.93228 -62.88929,181.52489 -124.14263,237.07441 -29.58226,26.82761 -56.12257,47.13241 -58.49956,44.75542 -0.65144,-0.65144 -1.18444,-0.25349 -1.18444,0.88433 0,1.13781 -2.21303,3.5188 -4.91785,5.29105 l -4.91785,3.22232 z"
       id="path2"
       transform="scale(0.26458333)" /><path
       style="fill:#32d0c7;stroke:#000000;stroke-width:7.50236;stroke-dasharray:none;stroke-opacity:1;paint-order:markers stroke fill"
       d="m 370.31424,826.83935 -24.09747,-13.97998 -0.0192,-39.55794 c -0.0184,-37.81147 -0.23161,-40.01416 -4.8301,-49.89135 -2.64598,-5.68337 -9.22207,-14.74461 -14.61353,-20.13607 -21.0738,-21.07378 -25.32016,-30.92071 -36.70939,-85.12569 -3.84182,-18.28449 -8.61574,-38.48367 -10.6087,-44.88708 -4.04394,-12.99319 -2.94823,-14.23277 7.70932,-8.72154 8.80653,4.55404 13.19044,12.47348 19.66102,35.51727 3.29388,11.73055 7.11156,23.01914 8.48375,25.08577 1.38815,2.09065 8.79271,5.75424 16.69182,8.25867 20.96252,6.64622 32.28118,14.74834 42.88393,30.69715 9.3586,14.07735 13.55169,16.34405 19.40553,10.49019 4.59483,-4.59482 3.82176,-9.22151 -3.67936,-22.02022 -8.80772,-15.02808 -20.95775,-26.0373 -35.03115,-31.74193 l -11.31106,-4.58493 V 548.7443 c 0,-58.73839 0.40114,-67.89851 3.09122,-70.58859 1.70017,-1.70018 4.69003,-3.09123 6.64412,-3.09123 7.78948,0 8.42045,3.96913 9.30345,58.5231 0.46843,28.9412 1.23298,54.49697 1.699,56.7906 0.76331,3.7569 2.65348,4.31116 19.07008,5.59195 17.79425,1.38828 36.20373,4.27033 59.05371,9.245 18.06495,3.93292 17.99985,4.09323 18.71967,-46.09433 0.32944,-22.96954 1.0095,-43.69552 1.51123,-46.05775 1.11665,-5.25734 7.88737,-7.73993 11.93882,-4.37755 2.58636,2.1465 2.89756,12.58835 2.36452,79.33994 l -0.61383,76.86812 -5.65047,13.54278 c -3.10777,7.44852 -9.96587,20.64778 -15.24023,29.33167 -5.27436,8.6839 -10.47233,18.9661 -11.55103,22.84934 -1.07871,3.88323 -1.97182,24.32208 -1.9847,45.41966 l -0.0234,38.35925 -6.38077,3.68567 c -32.60295,18.83213 -39.79915,22.86184 -40.72319,22.80406 -0.58636,-0.0367 -11.90998,-6.35766 -25.16359,-14.04664 z"
       id="path3"
       transform="scale(0.26458333)" /><path
       style="fill:#32d0c7;stroke:#000000;stroke-width:7.50236;stroke-dasharray:none;stroke-opacity:1;paint-order:markers stroke fill"
       d="m 383.59244,515.39087 c 0,-59.10515 0.17951,-62.14445 3.88967,-65.8546 3.83021,-3.83021 7.92364,-3.67609 13.32281,0.50162 1.87593,1.45153 2.45893,16.77033 2.45893,64.61028 v 62.70763 h -9.83571 -9.8357 z"
       id="path5"
       transform="scale(0.26458333)" /><path
       style="fill:#32d0c7;stroke:#000000;stroke-width:7.50236;stroke-dasharray:none;stroke-opacity:1;paint-order:markers stroke fill"
       d="m 430.80382,583.46508 -4.91785,-1.36711 -0.52459,-52.88859 c -0.55788,-56.24572 -0.59419,-56.01778 8.93362,-56.08191 3.00873,-0.0203 5.10329,1.62303 6.39321,5.01579 1.06749,2.8077 1.91845,27.6757 1.91845,56.06351 0,56.12333 0.80513,52.7632 -11.80284,49.25831 z"
       id="path6"
       transform="scale(0.26458333)"
       inkscape:export-filename="stewardview-two-color.svg"
       inkscape:export-xdpi="96"
       inkscape:export-ydpi="96" /></g></svg>
